<?xml version="1.0" standalone="no"?>
<!DOCTYPE svg PUBLIC "-//W3C//DTD SVG 20010904//EN"
 "http://www.w3.org/TR/2001/REC-SVG-20010904/DTD/svg10.dtd">
<svg version="1.0" xmlns="http://www.w3.org/2000/svg"
 width="200.000000pt" height="200.000000pt" viewBox="0 0 200.000000 200.000000"
 preserveAspectRatio="xMidYMid meet">
<metadata>
Created by potrace 1.11, written by Peter Selinger 2001-2013
</metadata>
<g transform="translate(0.000000,200.000000) scale(0.100000,-0.100000)"
fill="#000000" stroke="none">
<path d="M840 1884 c-206 -44 -381 -213 -435 -420 -19 -73 -19 -222 0 -294 23
-88 73 -177 136 -245 109 -116 229 -173 384 -182 170 -10 311 43 431 162 332
331 164 893 -294 981 -90 17 -137 17 -222 -2z m-102 -261 c2 -54 7 -73 19 -77
30 -12 43 13 43 85 0 54 3 69 15 69 11 0 15 -17 17 -71 2 -57 7 -74 21 -83 28
-17 43 13 46 86 2 68 4 73 20 63 6 -3 11 -40 11 -86 0 -74 -2 -84 -35 -135
l-35 -54 0 -235 c0 -221 -1 -235 -19 -245 -27 -14 -37 -13 -55 6 -14 13 -16
50 -16 247 l-1 232 -34 55 c-32 50 -35 60 -35 130 0 42 3 80 7 84 18 17 28 -7
31 -71z m353 48 c85 -55 119 -113 119 -204 0 -61 -23 -101 -65 -111 l-25 -6
-2 -202 c-3 -181 -5 -202 -21 -212 -15 -9 -21 -7 -33 8 -11 16 -14 58 -14 192
0 168 1 173 27 220 22 39 27 60 26 114 0 36 -4 75 -9 87 -7 16 -9 2 -9 -50 -1
-72 -25 -146 -51 -154 -7 -2 -24 7 -39 19 -45 39 -45 99 -1 188 20 41 36 89
36 107 0 18 4 33 8 33 4 0 28 -13 53 -29z"/>
<path d="M480 375 c0 -177 1 -185 20 -185 16 0 19 8 22 62 3 54 6 63 23 66 41
8 45 20 45 133 l0 109 -55 0 -55 0 0 -185z m65 67 c0 -111 -19 -107 -23 4 -2
67 0 85 10 82 9 -3 13 -29 13 -86z"/>
<path d="M620 377 c0 -101 3 -187 6 -190 4 -3 15 -2 25 4 16 8 19 20 18 70 -1
33 1 62 4 65 7 8 27 -64 27 -98 0 -17 8 -31 19 -38 28 -14 33 0 20 61 -6 30
-10 111 -9 182 l1 127 -55 0 -56 0 0 -183z m70 68 c0 -69 -3 -85 -15 -85 -12
0 -15 16 -15 85 0 69 3 85 15 85 12 0 15 -16 15 -85z"/>
<path d="M778 378 c-2 -101 -2 -186 -1 -190 2 -3 12 -4 23 -1 19 5 20 14 20
189 0 175 -1 184 -19 184 -18 0 -20 -10 -23 -182z"/>
<path d="M860 375 c0 -178 1 -185 20 -185 23 0 22 -11 20 193 -1 127 1 147 14
147 10 0 16 -9 17 -22 1 -13 2 -27 4 -33 1 -5 3 -74 3 -152 2 -136 3 -141 22
-136 19 5 20 14 20 174 0 144 2 169 15 169 12 0 15 -18 15 -97 1 -218 4 -248
21 -251 14 -2 18 7 21 50 7 86 3 302 -5 316 -6 8 -37 12 -98 12 l-89 0 0 -185z"/>
<path d="M1096 538 c-3 -13 -6 -96 -6 -185 0 -156 1 -163 20 -163 15 0 20 7
20 29 0 49 12 91 26 91 10 0 14 -16 14 -60 0 -53 2 -60 20 -60 19 0 20 7 20
185 l0 185 -54 0 c-47 0 -54 -3 -60 -22z m72 -101 c2 -71 0 -87 -12 -87 -20 0
-21 8 -18 100 3 56 7 80 15 77 8 -2 13 -35 15 -90z"/>
<path d="M1320 369 l0 -191 32 6 c60 12 74 29 81 97 4 34 7 111 7 170 0 102
-1 109 -20 109 -19 0 -20 -7 -20 -142 0 -155 -5 -188 -26 -188 -11 0 -14 31
-14 165 0 158 -1 165 -20 165 -19 0 -20 -7 -20 -191z"/>
<path d="M1240 210 c0 -23 4 -30 20 -30 16 0 20 7 20 30 0 23 -4 30 -20 30
-16 0 -20 -7 -20 -30z"/>
</g>
</svg>
